<svg width="188" height="54" viewBox="0 0 188 54" fill="none" xmlns="http://www.w3.org/2000/svg">
<rect x="46" y="4" width="128" height="47" fill="white"/>
<path d="M79.3316 18.2251H76.4358V9.87503H73.8186V7.50711H81.9414V9.87503H79.3316V18.2251Z" fill="#B50512"/>
<path d="M92.6594 18.2251H89.749V13.8558H86.384V18.2251H83.4736V7.50711H86.384V11.4805H89.749V7.50711H92.6594V18.2251Z" fill="#B50512"/>
<path d="M94.9833 18.2251V7.50711H97.8938V18.2251H94.9833Z" fill="#B50512"/>
<path d="M110.423 18.2251H106.625L102.71 10.6741H102.644C102.669 10.9038 102.691 11.18 102.71 11.5025C102.73 11.8251 102.747 12.155 102.762 12.4922C102.776 12.8246 102.784 13.1251 102.784 13.3939V18.2251H100.218V7.50711H104.001L107.901 14.9554H107.945C107.93 14.7208 107.915 14.4496 107.901 14.1417C107.886 13.8289 107.871 13.5137 107.857 13.196C107.847 12.8783 107.842 12.5973 107.842 12.3529V7.50711H110.423V18.2251Z" fill="#B50512"/>
<path d="M121.896 18.2251H118.626L116.507 14.127L115.65 14.6402V18.2251H112.739V7.50711H115.65V12.1623C115.772 11.9277 115.911 11.6931 116.067 11.4585C116.229 11.2239 116.385 11.0016 116.537 10.7914L118.787 7.50711H121.954L118.575 12.3089L121.896 18.2251Z" fill="#B50512"/>
<path d="M122.533 17.0081C122.533 16.4901 122.685 16.126 122.988 15.9158C123.296 15.7056 123.665 15.6006 124.095 15.6006C124.501 15.6006 124.852 15.7056 125.151 15.9158C125.449 16.126 125.598 16.4901 125.598 17.0081C125.598 17.5018 125.449 17.8585 125.151 18.0785C124.852 18.2984 124.501 18.4084 124.095 18.4084C123.665 18.4084 123.296 18.2984 122.988 18.0785C122.685 17.8585 122.533 17.5018 122.533 17.0081Z" fill="#B50512"/>
<path d="M91.6109 23.5782C91.2395 23.5782 90.9078 23.6578 90.616 23.817C90.3242 23.9708 90.0748 24.1963 89.8679 24.4934C89.661 24.7905 89.5018 25.1538 89.3904 25.5836C89.2843 26.008 89.2312 26.4907 89.2312 27.0318C89.2312 27.7639 89.3241 28.3793 89.5098 28.878C89.6955 29.3767 89.9767 29.7533 90.3534 30.008C90.7354 30.2626 91.2129 30.3899 91.786 30.3899C92.3059 30.3899 92.8047 30.3183 93.2822 30.1751C93.765 30.0318 94.2505 29.8594 94.7386 29.6578V32.3157C94.224 32.5438 93.696 32.7082 93.1548 32.809C92.619 32.9098 92.0486 32.9602 91.4437 32.9602C90.181 32.9602 89.1463 32.7109 88.3398 32.2122C87.5387 31.7082 86.9471 31.0106 86.5651 30.1194C86.1884 29.2281 86 28.1936 86 27.0159C86 26.1353 86.122 25.3289 86.3661 24.5968C86.6155 23.8647 86.9789 23.2308 87.4564 22.695C87.934 22.1538 88.5229 21.7374 89.2233 21.4456C89.9289 21.1485 90.7354 21 91.6427 21C92.2051 21 92.7967 21.0663 93.4175 21.1989C94.0436 21.3263 94.6537 21.5332 95.248 21.8196L94.285 24.2944C93.8605 24.0928 93.4307 23.9231 92.9957 23.7851C92.5606 23.6472 92.099 23.5782 91.6109 23.5782Z" fill="#1E1E1E"/>
<path d="M106.987 32.8011H103.827V28.0584H100.174V32.8011H97.0148V21.1671H100.174V25.4801H103.827V21.1671H106.987V32.8011Z" fill="#1E1E1E"/>
<path d="M116.418 32.8011H109.51V21.1671H116.418V23.6897H112.654V25.5199H116.139V28.0424H112.654V30.2387H116.418V32.8011Z" fill="#1E1E1E"/>
<path d="M123.637 23.5782C123.265 23.5782 122.934 23.6578 122.642 23.817C122.35 23.9708 122.101 24.1963 121.894 24.4934C121.687 24.7905 121.528 25.1538 121.416 25.5836C121.31 26.008 121.257 26.4907 121.257 27.0318C121.257 27.7639 121.35 28.3793 121.535 28.878C121.721 29.3767 122.002 29.7533 122.379 30.008C122.761 30.2626 123.239 30.3899 123.812 30.3899C124.332 30.3899 124.83 30.3183 125.308 30.1751C125.791 30.0318 126.276 29.8594 126.764 29.6578V32.3157C126.25 32.5438 125.722 32.7082 125.181 32.809C124.645 32.9098 124.074 32.9602 123.469 32.9602C122.207 32.9602 121.172 32.7109 120.366 32.2122C119.564 31.7082 118.973 31.0106 118.591 30.1194C118.214 29.2281 118.026 28.1936 118.026 27.0159C118.026 26.1353 118.148 25.3289 118.392 24.5968C118.641 23.8647 119.005 23.2308 119.482 22.695C119.96 22.1538 120.549 21.7374 121.249 21.4456C121.955 21.1485 122.761 21 123.668 21C124.231 21 124.822 21.0663 125.443 21.1989C126.069 21.3263 126.679 21.5332 127.274 21.8196L126.311 24.2944C125.886 24.0928 125.456 23.9231 125.021 23.7851C124.586 23.6472 124.125 23.5782 123.637 23.5782Z" fill="#1E1E1E"/>
<path d="M138.981 32.8011H135.431L133.131 28.3528L132.2 28.9098V32.8011H129.04V21.1671H132.2V26.2202C132.333 25.9655 132.484 25.7109 132.654 25.4562C132.829 25.2016 132.999 24.9602 133.163 24.7321L135.606 21.1671H139.045L135.376 26.3793L138.981 32.8011Z" fill="#1E1E1E"/>
<path d="M139.883 31.4822C139.883 30.9642 140.034 30.6001 140.337 30.3899C140.645 30.1798 141.014 30.0747 141.444 30.0747C141.85 30.0747 142.202 30.1798 142.5 30.3899C142.798 30.6001 142.947 30.9642 142.947 31.4822C142.947 31.9759 142.798 32.3326 142.5 32.5526C142.202 32.7725 141.85 32.8825 141.444 32.8825C141.014 32.8825 140.645 32.7725 140.337 32.5526C140.034 32.3326 139.883 31.9759 139.883 31.4822Z" fill="#1E1E1E"/>
<path d="M104.954 46.293L104.426 44.2843H100.943L100.401 46.293H97.2193L100.716 35.531H104.58L108.121 46.293H104.954ZM103.825 41.909L103.363 40.1496C103.314 39.959 103.243 39.6877 103.15 39.3358C103.057 38.9791 102.964 38.6125 102.872 38.2362C102.784 37.855 102.715 37.5422 102.666 37.2978C102.622 37.5422 102.559 37.8452 102.476 38.2069C102.397 38.5636 102.314 38.918 102.226 39.2699C102.143 39.6218 102.07 39.915 102.006 40.1496L101.545 41.909H103.825Z" fill="#0D672C"/>
<path d="M114.015 46.293H111.119V37.9429H108.502V35.575H116.625V37.9429H114.015V46.293Z" fill="#0D672C"/>
<path d="M122.885 46.293H119.989V37.9429H117.372V35.575H125.495V37.9429H122.885V46.293Z" fill="#0D672C"/>
<path d="M133.391 46.293H127.027V35.575H133.391V37.899H129.923V39.5851H133.134V41.909H129.923V43.9324H133.391V46.293Z" fill="#0D672C"/>
<path d="M145.472 46.293H141.675L137.76 38.742H137.694C137.718 38.9717 137.74 39.2479 137.76 39.5704C137.779 39.893 137.797 40.2229 137.811 40.5601C137.826 40.8925 137.833 41.193 137.833 41.4618V46.293H135.267V35.575H139.05L142.95 43.0234H142.994C142.98 42.7888 142.965 42.5175 142.95 42.2096C142.936 41.8968 142.921 41.5816 142.906 41.2639C142.897 40.9462 142.892 40.6652 142.892 40.4208V35.575H145.472V46.293Z" fill="#0D672C"/>
<path d="M156.887 40.7067C156.887 41.953 156.654 42.9891 156.19 43.8151C155.726 44.6411 155.071 45.2618 154.225 45.6772C153.385 46.0877 152.395 46.293 151.256 46.293H147.789V35.575H151.498C152.652 35.575 153.629 35.773 154.431 36.1688C155.232 36.5647 155.841 37.1439 156.256 37.9063C156.676 38.6687 156.887 39.6022 156.887 40.7067ZM153.881 40.8094C153.881 40.1594 153.793 39.6218 153.617 39.1966C153.446 38.7665 153.187 38.4463 152.84 38.2362C152.493 38.0211 152.055 37.9136 151.528 37.9136H150.685V43.9177H151.33C152.209 43.9177 152.855 43.6636 153.265 43.1553C153.676 42.6421 153.881 41.8602 153.881 40.8094Z" fill="#0D672C"/>
<path d="M158.287 45.076C158.287 44.558 158.438 44.1939 158.741 43.9837C159.049 43.7736 159.418 43.6685 159.848 43.6685C160.254 43.6685 160.606 43.7736 160.904 43.9837C161.202 44.1939 161.351 44.558 161.351 45.076C161.351 45.5697 161.202 45.9264 160.904 46.1464C160.606 46.3663 160.254 46.4763 159.848 46.4763C159.418 46.4763 159.049 46.3663 158.741 46.1464C158.438 45.9264 158.287 45.5697 158.287 45.076Z" fill="#0D672C"/>
<rect x="56.3024" y="7.50711" width="13.7628" height="11.2605" rx="2" fill="#B50512"/>
<rect x="56.3024" y="21.2697" width="26.2744" height="11.2605" rx="2" fill="#F97308"/>
<rect x="56.3024" y="35.0327" width="36.2837" height="11.2605" rx="2" fill="#0D672C"/>
<path fill-rule="evenodd" clip-rule="evenodd" d="M3.71901 0C1.66506 0 0 1.68049 0 3.75349V50.0465C0 52.1195 1.66506 53.8 3.71901 53.8H185.189C186.835 53.8 188.024 52.2113 187.574 50.6135L176.088 27.5842C175.962 27.1369 175.962 26.6631 176.088 26.2158L187.574 3.18648C188.024 1.5887 186.835 0 185.189 0H3.71901ZM57.0248 5.00465C54.9709 5.00465 53.3058 6.68515 53.3058 8.75814V45.0419C53.3058 47.1149 54.9709 48.7953 57.0248 48.7953H167.356C169.409 48.7953 171.075 47.1149 171.075 45.0419V8.75814C171.075 6.68515 169.409 5.00465 167.356 5.00465H57.0248Z" fill="#F97308"/>
</svg>
